<svg xmlns="http://www.w3.org/2000/svg" xmlns:xlink="http://www.w3.org/1999/xlink" version="1.1" width="256" height="256" viewBox="0 0 256 256" xml:space="preserve">
<desc>Created with Fabric.js 1.7.22</desc>
<defs>
</defs>
<g transform="translate(128 128) scale(0.72 0.72)" style="">
	<g style="stroke: none; stroke-width: 0; stroke-dasharray: none; stroke-linecap: butt; stroke-linejoin: miter; stroke-miterlimit: 10; fill: none; fill-rule: nonzero; opacity: 1;" transform="translate(-175.05 -175.05000000000004) scale(3.89 3.89)" >
	<path d="M 90 9.478 c 0 -0.768 -0.293 -1.536 -0.879 -2.121 c -1.171 -1.172 -3.071 -1.172 -4.242 0 L 45 47.237 L 5.121 7.357 c -1.171 -1.172 -3.071 -1.172 -4.242 0 c -1.172 1.171 -1.172 3.071 0 4.242 l 42 42 c 0.563 0.563 1.325 0.879 2.121 0.879 s 1.559 -0.316 2.121 -0.879 l 42 -42 C 89.707 11.014 90 10.246 90 9.478 z" style="stroke: none; stroke-width: 1; stroke-dasharray: none; stroke-linecap: butt; stroke-linejoin: miter; stroke-miterlimit: 10; fill: rgb(0,0,0); fill-rule: nonzero; opacity: 1;" transform=" matrix(1 0 0 1 0 0) " stroke-linecap="round" />
	<path d="M 90 38.522 c 0 -0.768 -0.293 -1.536 -0.879 -2.121 c -1.171 -1.172 -3.071 -1.172 -4.242 0 L 45 76.28 L 5.121 36.401 c -1.171 -1.172 -3.071 -1.172 -4.242 0 c -1.172 1.171 -1.171 3.072 0 4.242 l 42 42 c 1.171 1.172 3.071 1.172 4.242 0 l 42 -42 C 89.707 40.058 90 39.29 90 38.522 z" style="stroke: none; stroke-width: 1; stroke-dasharray: none; stroke-linecap: butt; stroke-linejoin: miter; stroke-miterlimit: 10; fill: rgb(0,0,0); fill-rule: nonzero; opacity: 1;" transform=" matrix(1 0 0 1 0 0) " stroke-linecap="round" />
</g>
</g>
</svg>